((((((hardcoded Dutch subs))))))))

Verenigde Staten
Drama / Oorlog
132 minuten

geregisseerd door Clint Eastwood
met Ryan Phillippe, Jesse Bradford en Adam Beach

Het is februari 1945. Terwijl de overwinning in Europa eindelijk in zicht komt, woedt de oorlog in de Stille Oceaan in alle hevigheid voort. Eén van de belangrijkste en bloedigste veldslagen speelde zich af op het eiland Iwo Jima. Vijf mariniers en een veldarts van de marine planten de Amerikaanse vlag op de Suribachiberg. De foto die daarvan wordt gemaakt, wordt een symbool van de overwinning. De Amerikaanse soldaten worden op slag beroemd en worden ingezet om geld bij het volk op te halen om de verdere oorlog te kunnen betalen.
 
http://www.moviemeter.nl/film/31631

Format : AVI
Format/Info : Audio Video Interleave
File size : 578 MiB
Duration : 2h 11mn
Overall bit rate : 613 Kbps
Writing application : VirtualDubMod 1.5.4.1 (build 2178/release)
Writing library : VirtualDub build 25854/release

Video
ID : 0
Format : MPEG-4 Visual
Format profile : Advanced Simple@L5
Format settings, BVOP : Yes
Format settings, QPel : No
Format settings, GMC : No warppoints
Format settings, Matrix : Default (H.263)
Muxing mode : Packed bitstream
Codec ID : XVID
Codec ID/Hint : XviD
Duration : 2h 11mn
Bit rate : 492 Kbps
Width : 608 pixels
Height : 256 pixels
Display aspect ratio : 2.35
Frame rate : 23.976 fps
Resolution : 24 bits
Colorimetry : 4:2:0
Scan type : Progressive
Bits/(Pixel*Frame) : 0.132
Stream size : 464 MiB (80%)
Writing library : XviD 1.1.2 (UTC 2006-11-01)

Audio
ID : 1
Format : MPEG Audio
Format version : Version 1
Format profile : Layer 3
Codec ID : 55
Codec ID/Hint : MP3
Duration : 2h 11mn
Bit rate mode : Constant
Bit rate : 112 Kbps
Channel(s) : 2 channels
Sampling rate : 48.0 KHz
Resolution : 16 bits
Stream size : 106 MiB (18%)
Alignment : Split accross interleaves
Interleave, duration : 42 ms (1.00 video frame)
Interleave, preload duration : 500 ms
